name analog
datacolumns 19
datarows 27
range 0.6930000000000001 0.706
endheader
time	ground_force_vx	ground_force_vy	ground_force_vz	ground_force_px	ground_force_py	ground_force_pz	l_ground_force_vx	l_ground_force_vy	l_ground_force_vz	l_ground_force_px	l_ground_force_py	l_ground_force_pz	ground_torque_x	ground_torque_y	ground_torque_z	l_ground_torque_x	l_ground_torque_y	l_ground_torque_z
0.6930000000000001	-0.0	-0.0	-0.0	0.356842041015625	33.20137023925781	-386.6268005371094	-1.056148886680603	-37.96163558959961	-381.4714660644531	-0.0	-0.0	-0.0	-0.0	-0.0	-0.0	109204.8984375	21166.00390625	-6770.9921875
0.6935	-0.0	-0.0	-0.0	0.1962844133377075	33.27241516113281	-385.9196166992188	-1.0645294189453125	-37.57036590576172	-382.9195861816406	-0.0	-0.0	-0.0	-0.0	-0.0	-0.0	109344.7734375	21055.19921875	-6746.8623046875
0.6940000000000001	-0.0	-0.0	-0.0	0.3298283517360687	33.860557556152344	-385.9220275878906	-0.7693357467651367	-37.43991088867188	-383.0193481445313	-0.0	-0.0	-0.0	-0.0	-0.0	-0.0	109158.421875	21370.427734375	-6794.57421875
0.6945	-0.0	-0.0	-0.0	0.2767066359519958	34.21700668334961	-386.3429260253906	-1.0473464727401731	-37.385738372802734	-382.9855346679688	-0.0	-0.0	-0.0	-0.0	-0.0	-0.0	109083.015625	21249.69921875	-6687.52392578125
0.6950000000000001	-0.0	-0.0	-0.0	0.5078191757202148	34.69001007080078	-388.9235534667969	-1.0018105506896973	-37.08648300170898	-382.3892517089844	-0.0	-0.0	-0.0	-0.0	-0.0	-0.0	108840.609375	21379.580078125	-6729.38330078125
0.6955	-0.0	-0.0	-0.0	0.5352630615234375	34.96674346923828	-389.7034301757813	-1.276879072189331	-37.12118911743164	-381.69146728515625	-0.0	-0.0	-0.0	-0.0	-0.0	-0.0	108882.3046875	21474.72265625	-6883.6357421875
0.6960000000000001	-0.0	-0.0	-0.0	0.1727926731109619	35.60014724731445	-389.5942687988281	-1.8805307149887085	-37.36007690429688	-379.0027465820313	-0.0	-0.0	-0.0	-0.0	-0.0	-0.0	108708.7109375	21393.892578125	-6978.9326171875
0.6965	-0.0	-0.0	-0.0	0.8921051025390625	36.50605773925781	-390.7652282714844	-2.066971778869629	-36.84781646728516	-380.7847290039063	-0.0	-0.0	-0.0	-0.0	-0.0	-0.0	108714.78125	21418.904296875	-6984.84765625
0.6970000000000001	-0.0	-0.0	-0.0	0.4743372499942779	36.99346923828125	-391.9924011230469	-2.75003433227539	-37.02459716796875	-379.7361755371094	-0.0	-0.0	-0.0	-0.0	-0.0	-0.0	108308.1796875	21840.1328125	-7118.76806640625
0.6975	-0.0	-0.0	-0.0	0.5447619557380676	37.09722900390625	-390.489501953125	-2.652310609817505	-36.90949249267578	-377.4329223632813	-0.0	-0.0	-0.0	-0.0	-0.0	-0.0	107752.1796875	21496.5703125	-7254.84130859375
0.6980000000000001	-0.0	-0.0	-0.0	0.8921051025390625	37.13869094848633	-389.7090759277344	-3.104877471923828	-36.997745513916016	-378.0597229003906	-0.0	-0.0	-0.0	-0.0	-0.0	-0.0	107131.265625	21616.62890625	-7270.18212890625
0.6985	-0.0	-0.0	-0.0	0.8921051025390625	37.14811706542969	-391.8388977050781	-3.291452407836914	-36.93669128417969	-377.083740234375	-0.0	-0.0	-0.0	-0.0	-0.0	-0.0	107489.59375	21780.53515625	-7296.833984375
0.6990000000000001	-0.0	-0.0	-0.0	0.6730390191078186	37.39595031738281	-393.9949951171875	-3.441268920898437	-37.2293586730957	-376.0363159179688	-0.0	-0.0	-0.0	-0.0	-0.0	-0.0	107578.0	21771.931640625	-7199.857421875
0.6995	-0.0	-0.0	-0.0	0.71368408203125	36.79131317138672	-391.9909973144531	-3.123465061187744	-37.34157180786133	-375.796875	-0.0	-0.0	-0.0	-0.0	-0.0	-0.0	107320.140625	21807.68359375	-7193.51171875
0.7000000000000001	-0.0	-0.0	-0.0	0.9320566058158876	36.62220764160156	-391.5595703125	-3.193588256835937	-37.02543640136719	-376.1100158691406	-0.0	-0.0	-0.0	-0.0	-0.0	-0.0	107289.09375	21803.98046875	-7323.03857421875
0.7005	-0.0	-0.0	-0.0	0.6542476415634155	36.88015365600586	-391.6372680664063	-2.978421449661255	-37.5085334777832	-377.3215026855469	-0.0	-0.0	-0.0	-0.0	-0.0	-0.0	107288.6171875	21745.73046875	-7173.3017578125
0.7010000000000001	-0.0	-0.0	-0.0	0.8028945922851562	36.43436813354492	-390.8148193359375	-2.68033218383789	-37.31906509399414	-376.07373046875	-0.0	-0.0	-0.0	-0.0	-0.0	-0.0	107423.296875	21645.552734375	-7012.0986328125
0.7015	-0.0	-0.0	-0.0	0.8129582405090332	35.92091369628906	-392.5368957519531	-3.136141538619995	-37.33147811889648	-378.2542419433594	-0.0	-0.0	-0.0	-0.0	-0.0	-0.0	107336.1796875	21386.546875	-7009.2255859375
0.7020000000000001	-0.0	-0.0	-0.0	1.3381576538085938	36.36520385742188	-392.1902465820313	-2.6112003326416016	-37.39849472045898	-379.3000183105469	-0.0	-0.0	-0.0	-0.0	-0.0	-0.0	107583.453125	21494.66015625	-7005.619140625
0.7025	-0.0	-0.0	-0.0	1.0092957019805908	36.58424758911133	-392.42333984375	-2.404906272888184	-37.21245193481445	-377.7438049316406	-0.0	-0.0	-0.0	-0.0	-0.0	-0.0	107696.9609375	21383.08984375	-6826.96875
0.7030000000000001	-0.0	-0.0	-0.0	1.0808041095733645	36.564002990722656	-393.9860534667969	-2.395191192626953	-37.3503303527832	-377.3944091796875	-0.0	-0.0	-0.0	-0.0	-0.0	-0.0	108408.7109375	21558.1484375	-6893.24853515625
0.7035	-0.0	-0.0	-0.0	1.2696402072906494	36.74240112304688	-391.7584838867188	-2.000916004180908	-37.51709365844727	-378.7907409667969	-0.0	-0.0	-0.0	-0.0	-0.0	-0.0	108169.4375	21541.62109375	-6879.8251953125
0.704	-0.0	-0.0	-0.0	1.3173235654830933	37.036617279052734	-392.0709533691406	-2.1191329956054688	-37.16366958618164	-378.1312255859375	-0.0	-0.0	-0.0	-0.0	-0.0	-0.0	108362.234375	21483.0625	-6751.32275390625
0.7045	-0.0	-0.0	-0.0	1.1807163953781128	37.70744705200195	-394.1072692871094	-1.9716339111328125	-37.09510803222656	-378.8688659667969	-0.0	-0.0	-0.0	-0.0	-0.0	-0.0	108263.3203125	21342.9765625	-6797.2041015625
0.705	-0.0	-0.0	-0.0	1.0916430950164795	37.47115707397461	-392.9220886230469	-2.060481071472168	-37.38825988769531	-379.17864990234375	-0.0	-0.0	-0.0	-0.0	-0.0	-0.0	108404.171875	21454.533203125	-6701.5703125
0.7055	-0.0	-0.0	-0.0	1.3381576538085938	37.51328659057617	-392.02972412109375	-2.0808868408203125	-37.33989715576172	-378.290771484375	-0.0	-0.0	-0.0	-0.0	-0.0	-0.0	108313.9609375	21330.23046875	-6926.07568359375
0.706	-0.0	-0.0	-0.0	1.416668176651001	37.39200592041016	-391.3233642578125	-2.422658920288086	-37.06776428222656	-379.4073181152344	-0.0	-0.0	-0.0	-0.0	-0.0	-0.0	108335.46875	21466.05078125	-6860.11767578125
